#N canvas 165 106 770 430 10;
#X obj 31 306 sendOSC;
#X msg 7 69 connect localhost 9001;
#X obj 120 8 loadbang;
#X text 464 137 receive;
#X obj 605 206 OSCroute /humm /hey;
#X floatatom 34 117 5 0 0 0 - - -;
#X msg 34 151 send /squ \$1;
#X text 706 225 etc...;
#X obj 467 240 osc~;
#X obj 488 296 *~ 0.5;
#X obj 481 336 dac~;
#X obj 465 207 unpack f f;
#X text 617 175 < route addresses;
#X text 575 240 for example;
#X obj 384 322 print;
#X obj 465 153 dumpOSC 9000;
#X obj 42 369 tgl 15 0 empty empty empty 0 -6 0 8 -262144 -1 -1 1 1
;
#X msg 42 388 \; pd dsp \$1;
#X obj 514 241 osc~;
#X obj 292 85 snapshot~;
#X obj 292 36 tgl 15 0 empty empty empty 0 -6 0 8 -262144 -1 -1 1 1
;
#X floatatom 298 118 5 0 0 0 - - -;
#X msg 286 138 send /amp \$1;
#X obj 292 56 metro 100;
#X floatatom 362 36 5 0 0 0 - - -;
#X obj 465 177 OSCroute /mouseloc /blah;
#X text 232 207 because i expect a list from python >;
#X text 365 104 < sending amplitude;
#X text 65 371 dsp on/off;
#X text 43 171 send normal msgs;
#X text 247 322 print all incomming >;
#X text 44 103 < click and drag to send number;
#X obj 533 276 hsl 128 15 0 1 0 0 empty empty amplitude -2 -6 0 8 -262144
-1 -1 0 1;
#X floatatom 555 297 5 0 0 0 - - -;
#X connect 1 0 0 0;
#X connect 2 0 1 0;
#X connect 2 0 20 0;
#X connect 5 0 6 0;
#X connect 6 0 0 0;
#X connect 8 0 9 0;
#X connect 9 0 10 0;
#X connect 9 0 10 1;
#X connect 9 0 19 0;
#X connect 11 0 8 0;
#X connect 11 1 18 0;
#X connect 15 0 25 0;
#X connect 15 0 14 0;
#X connect 16 0 17 0;
#X connect 18 0 9 0;
#X connect 19 0 21 0;
#X connect 19 0 22 0;
#X connect 20 0 23 0;
#X connect 22 0 0 0;
#X connect 23 0 19 0;
#X connect 24 0 23 1;
#X connect 25 0 11 0;
#X connect 25 2 4 0;
#X connect 32 0 9 1;
#X connect 32 0 33 0;
